<svg height="100%" width="100%" id="cloud" viewBox="0 0 512 512"  xmlns="http://www.w3.org/2000/svg" xmlns:xlink="http://www.w3.org/1999/xlink">
    <path d="m373.47 167.76a102.36 102.36 0 0 0 -57.25 17.41 95.22 95.22 0 0 0 -37.35 75.61 7.5 7.5 0 0 1 -15 0 110.17 110.17 0 0 1 42.51-86.95 117.34 117.34 0 0 0 -199.14 60.59c-.67 0-1.34 0-2 0a69.5 69.5 0 0 0 0 139h268.23a102.81 102.81 0 1 0 0-205.61z"/>
    <path d="m105.15 234.37a69.5 69.5 0 0 0 .07 139h268.25a102.82 102.82 0 0 0 89.59-153.25c13.22 59.88-25.06 146.05-178.06 147.08-114.75.76-186-52.52-177.74-132.78-.72-.03-1.42-.04-2.11-.05z"/>
</svg>